<?xml version="1.0"?>
<svg xmlns="http://www.w3.org/2000/svg" viewBox="0 0 24 24" enable-background="new 0 0 24 24">
    <path d="M12,2C6.5,2,2,6.5,2,12c0,5.5,4.5,10,10,10s10-4.5,10-10C22,6.5,17.5,2,12,2z M13.2,16.8c-1.5,0-2.3-1.3-2.3-1.3 c0,1.1-1.8,4.5-2.3,5.5c0,0-0.1,0.1-0.2-0.1c0-0.7,0.2-2.6,1.2-7.1c0.2-1.8-0.1-2.4-0.1-3.1c0-1.7,0.9-2,1.4-2 c0.7,0,1.7,0.3,1.7,1.4c0,1.3-1.1,1.7-1.1,1.7s-0.1,0.3-0.2,1.3c-0.1,0.9,0.3,2,1.8,2c2.5,0,2.9-3.4,2.9-4.4c0-1.3-1-3.9-3.9-3.9 c-4,0-4.6,3.5-4.6,4.5c0,0.4,0.1,1.1,0.2,1.4c0.7,0.1,0.7,1.1,0.4,1.4c-0.4,0.3-2.2,0.7-2.2-3.3c0-3.8,3.4-5.8,6.4-5.8 c2.8,0,5.9,2,5.9,5.7C18.1,14.2,15.7,16.8,13.2,16.8z"/>
</svg>
